<svg width="1081" height="375" xmlns="http://www.w3.org/2000/svg" xml:space="preserve" enable-background="new 0 0 1081 375" version="1.1">

 <g>
  <title>Layer 1</title>
  <path id="svg_2" d="m1036.46863,376c-0.98108,-0.70932 -1.3772,-1.90237 -2.02283,-2.05743c-17.89532,-4.29798 -31.1604,-14.92511 -41.41955,-29.83817c-7.96064,-11.57181 -9.45014,-24.84836 -10.91413,-38.29779c-1.63129,-14.98575 -2.65967,-30.11792 -8.42615,-44.37741c-5.73706,-14.18668 -16.09558,-21.45856 -31.32403,-21.94536c-0.99671,-0.03186 -1.99097,-0.14661 -2.98584,-0.22894c-0.80469,-0.06662 -1.60858,-0.14255 -3.03852,-0.27019c-0.11608,1.80505 -0.30371,3.3699 -0.30444,4.93486c-0.0169,33.82305 -0.01751,67.6461 0.00275,101.46916c0.00091,1.48697 0.50043,3.00934 0.3103,4.45508c-1.43109,10.88211 5.27887,12.9643 14.04639,13.46451c4.81744,0.27481 9.67413,0.31869 14.42499,1.04401c1.54126,0.23529 2.80285,2.30279 4.19244,3.53222c-1.5296,0.85861 -3.05328,2.45255 -4.58978,2.46506c-21.49207,0.17496 -42.9859,0.14346 -64.47931,0.14215c-13.99567,-0.00085 -27.99365,0.09341 -41.9848,-0.16772c-2.60352,-0.04862 -5.1792,-1.58509 -7.76777,-2.43488c2.5008,-1.1601 4.89814,-2.80698 7.5268,-3.3656c3.88159,-0.82486 7.93146,-0.84116 11.90308,-1.26346c7.92517,-0.84256 10.57342,-3.5119 10.60119,-11.48587c0.11261,-32.32291 0.12683,-64.64633 0.11615,-96.96954c-0.01269,-38.65438 -0.04089,-77.30887 -0.16717,-115.96297c-0.03394,-10.38417 -3.16217,-13.36272 -13.7464,-13.97172c-3.97986,-0.22899 -7.99268,-0.30354 -11.91285,-0.93221c-1.4262,-0.22873 -2.62677,-1.86439 -3.93029,-2.85814c1.46545,-1.02264 2.84289,-2.7366 4.41296,-2.93632c4.43707,-0.56443 8.95288,-0.66166 13.43817,-0.67109c28.1579,-0.05923 56.32483,-0.47327 84.47046,0.11273c15.9256,0.33159 31.87775,1.83558 47.70478,3.74825c15.27203,1.84559 28.71118,8.685 37.01623,21.81184c15.13013,23.91457 11.08569,55.28246 -13.14563,72.86266c-14.70471,10.66858 -31.61963,15.037 -49.16309,17.75693c-4.16217,0.64529 -8.31842,1.3289 -12.47735,1.9949c0.01513,0.43814 0.03027,0.8763 0.04535,1.31444c5.77832,0.84029 11.56628,1.61922 17.33331,2.53099c32.01306,5.06128 51.02362,23.93143 57.35394,55.3251c2.85315,14.14951 4.01075,28.6341 6.24634,42.91834c0.86817,5.54724 2.245,11.07397 4.00086,16.40903c2.57788,7.83252 9.49279,13.19467 15.88855,12.7521c1.51379,-0.10473 2.96838,-1.06396 4.45019,-1.63012c-0.84338,-1.25089 -1.64905,-2.52933 -2.53808,-3.74689c-1.80506,-2.47202 -4.43421,-4.6659 -5.30176,-7.422c-1.25574,-3.98892 0.73498,-7.57123 4.38171,-9.70541c4.24243,-2.48288 11.28137,-1.49488 14.47644,1.7424c0.78565,0.79608 1.54224,1.62109 2.56995,2.09262c0.25781,5.01477 0.25781,10.36972 0.00952,15.83999c-3.90479,4.31369 -7.16382,9.01163 -13.10266,10.34083c0.11694,0.49301 0.23389,0.98602 0.35095,1.47903c-10.68762,0 -21.37512,0 -32.53137,0m-30.27729,-207.28528c-1.06597,1.46288 -2.20312,2.87964 -3.18566,4.39658c-4.19672,6.47932 -7.32288,13.19957 -4.16083,22.70732c1.91546,-3.05097 3.38556,-5.05812 4.50635,-7.24428c2.66919,-5.20628 4.78851,-10.74115 7.90295,-15.65317c1.60944,-2.53839 2.26129,-4.09974 0.10193,-6.30252c-2.83972,-2.89693 -3.69196,0.94765 -6.02039,0.8461c0.11695,-0.95833 0.47339,-1.95854 0.31421,-2.86857c-1.92566,-11.01096 -1.94501,-11.00652 8.05072,-14.75634c0.13245,-0.04966 0.20728,-0.25274 0.30902,-0.38421c-0.92578,-5.59505 -5.76507,-6.81055 -10.80432,-2.71375c-7.10907,5.77956 -7.698,14.87848 -1.51471,23.41323c1.43055,-0.70426 2.86115,-1.40853 4.50073,-1.44039m-18.87066,26.76581c0.57025,-11.91629 2.49493,-23.95532 1.42853,-35.7233c-2.21344,-24.42424 -15.792,-36.11408 -38.27546,-35.07219c-8.7127,0.40374 -12.77258,4.12017 -13.50366,12.77788c-0.50311,5.95754 -0.8847,11.94438 -0.90985,17.91989c-0.10095,23.96892 -0.04175,47.93853 -0.04175,71.90787c0,1.63556 0.00006,3.27113 0.00006,4.87459c23.93091,1.71617 45.96448,-7.53214 51.30213,-36.68474m-68.65729,-31.36256c6.01331,-9.24158 7.9408,-19.25454 5.6582,-30.05567c-1.38464,-6.55209 -4.16424,-9.14462 -10.85272,-9.49362c-4.64734,-0.2425 -9.32068,-0.04838 -13.98089,0.03467c-4.18994,0.07466 -6.97998,2.55612 -8.23932,6.17012c-2.78668,7.99707 -2.33106,16.08835 0.82599,24.2361c1.56738,-3.05826 2.49011,-6.23429 2.94598,-9.47596c0.46118,-3.27969 -0.02997,-6.76232 0.84967,-9.88766c0.50867,-1.80713 2.69794,-4.01604 4.48718,-4.4051c3.68,-0.80028 7.59827,-0.56894 11.4206,-0.63448c4.66198,-0.07991 6.51135,2.41086 7.24334,6.951c1.69837,10.53398 -2.11779,19.30881 -8.09295,27.37195c-2.54126,3.42932 -1.94452,5.52977 1.85992,7.9521c1.82855,-2.7715 3.61664,-5.48164 5.875,-8.76345m91.72028,121.49052c0.25506,-4.46646 0.70044,-8.93179 0.72668,-13.3996c0.05963,-10.13754 -4.96429,-17.29908 -13.58807,-22.14712c-5.62958,-3.16481 -10.85157,-2.97562 -13.79364,0.36302c-3.49524,3.96634 -4.84943,16.04512 -1.9195,19.34975c0.92353,1.04162 2.71771,1.31128 4.11347,1.93423c0.59192,-1.7092 1.57934,-3.3977 1.67004,-5.13312c0.10059,-1.92276 -0.95086,-3.89407 -0.91797,-5.83432c0.09656,-5.6942 2.31018,-7.14726 7.55896,-5.28076c6.30988,2.24381 12.50653,11.45047 12.70191,19.38925c0.08075,3.28452 -0.54261,6.58631 -0.90796,10.55619c-3.58637,-2.69864 -6.16345,-4.63782 -8.83777,-6.65018c-2.15033,4.95746 -2.26398,7.05661 0.21881,9.51999c4.79413,4.75665 9.83228,9.26727 14.95538,14.05365c2.12006,-4.10471 2.42444,-7.16239 -1.49249,-9.91861c-1.87756,-1.32123 -3.72473,-3.60996 -0.48785,-6.80237m-85.89246,49.68961c-0.22595,-1.3902 -0.4519,-2.7804 -0.67792,-4.17057c-0.53375,-0.13409 -1.0675,-0.26815 -1.60125,-0.40225c-0.95935,2.9249 -2.52436,5.79895 -2.77472,8.78333c-1.16755,13.91803 1.59057,13.62884 -15.52222,13.85952c-0.49487,0.00669 -0.99603,-0.15591 -1.48578,-0.12103c-5.32867,0.37982 -6.67041,-2.98712 -7.22748,-7.38562c-1.23651,-9.76184 2.41535,-17.97049 8.25977,-25.28925c2.76367,-3.46072 2.26318,-5.76702 -1.76837,-8.93252c-3.06763,5.10739 -6.22998,9.85351 -8.86365,14.87686c-4.12512,7.86807 -4.25513,16.34259 -2.50171,24.81995c1.18042,5.707 3.8739,7.77225 9.78552,7.97952c4.98322,0.17471 9.98316,0.13296 14.96723,-0.0473c5.23596,-0.18949 8.47619,-3.30521 9.13519,-8.23587c0.65308,-4.88617 0.3241,-9.9036 0.27539,-15.73477m107.43872,27.10717c1.34632,-0.86731 3.11109,-1.44043 3.96472,-2.65426c3.2439,-4.61283 1.70435,-18.15912 -3.79882,-22.45151c-0.5221,6.15289 -1.04419,12.30575 -1.6056,18.92377c-2.08508,-0.45633 -3.98632,-0.50241 -5.52722,-1.27106c-8.55658,-4.26859 -13.50134,-11.37854 -11.22046,-22.98679c0.86799,-4.41732 -1.15344,-5.8721 -4.33624,-7.43167c-6.35852,20.20282 3.45142,37.08878 22.52362,37.87152m-23.24212,-165.24023c5.61071,-5.9128 5.62329,-6.15965 0.39782,-10.0325c-3.63665,4.02853 -7.4552,7.92872 -10.87494,12.15194c-2.68426,3.3151 -5.24823,6.83696 -7.19781,10.61185c-2.8905,5.59668 0.62897,10.76645 6.81592,10.01863c8.43756,-1.0199 14.79669,-6.14637 21.28082,-11.07245c-8.62732,-3.76358 -14.41376,3.66892 -22.70148,3.59891c3.927,-4.9216 7.85401,-9.8432 12.27967,-15.27638m-88.06287,103.77627c3.86981,15.09543 -5.10651,25.67182 -12.93738,37.9079c-2.78741,-3.43704 -4.9862,-6.14822 -7.19391,-8.87039c-3.14331,5.43271 -2.18615,9.99817 2.67401,13.03458c3.84382,2.40146 8.47834,0.88659 11.68958,-4.00577c2.44696,-3.72806 4.98413,-7.43979 6.98706,-11.40817c5.13708,-10.17804 8.31476,-20.58518 1.64575,-31.8126c-0.96954,1.58631 -1.81152,2.96378 -2.86511,5.15445m-19.39929,-145.19496c1.91498,-2.61787 3.83001,-5.23573 5.87823,-8.03573c2.36859,2.88371 4.37213,5.32298 6.55231,7.97722c2.8714,-5.45722 1.79486,-9.42365 -2.82111,-12.80481c-3.19153,-2.33773 -6.4945,-1.72564 -8.3363,1.12495c-5.09125,7.87988 -10.35095,15.79568 -14.15088,24.31847c-2.95209,6.62112 -2.08813,13.88203 3.71423,19.94569c1.11707,-2.64357 1.54865,-5.31308 1.76203,-7.99991c0.33374,-4.20463 -0.18616,-8.62694 0.96533,-12.57501c1.1759,-4.03186 3.93133,-7.60298 6.43616,-11.95087m120.77124,-7.11609c-0.88562,-10.25891 -12.90961,-20.96824 -23.14814,-20.78179c-3.26904,0.05951 -4.79693,1.40367 -5.14355,4.66653c-0.60352,5.68123 2.62848,9.65979 5.48907,14.09486c1.94422,-1.41235 3.5987,-2.61421 5.10749,-3.7102c-1.77875,-2.95156 -3.31427,-5.49953 -5.46668,-9.07114c6.97541,1.44356 11.91999,4.40929 14.68573,8.92264c2.55384,4.1675 2.98499,9.63573 4.35095,14.5311c0.51838,0.12971 1.03681,0.25943 1.55518,0.38914c0.85669,-2.73019 1.71332,-5.46039 2.56995,-9.04114m-129.36725,91.12311c0.9671,-8.61342 5.48529,-15.65484 10.7644,-22.0161c3.45819,-4.16709 1.28064,-5.82528 -1.53198,-8.15077c-12.89435,14.59587 -20.15002,32.82366 -11.60937,46.79183c3.29217,-1.94515 4.43817,-4.46781 3.10693,-8.33879c-0.78455,-2.28116 -0.57544,-4.90401 -0.72998,-8.28617m29.36194,2.67638c-0.03302,9.69476 -5.11353,17.34338 -10.50544,24.67889c-2.58087,3.51105 -2.63397,5.78018 1.02118,8.05991c14.12958,-13.57416 19.8761,-37.66001 11.2182,-46.52553c-4.76648,3.71912 -1.77954,8.49664 -1.73394,13.78673m-0.0777,-46.023c-0.26135,2.79796 -1.26325,5.77842 -0.62811,8.35547c1.27832,5.18753 0.79284,9.96515 -1.78986,14.41667c-2.64624,4.56095 -5.51111,9.04656 -8.75616,13.19272c-2.75739,3.5232 -1.91022,5.71953 1.88672,8.32219c3.60211,-5.42486 7.03503,-10.63104 10.50476,-15.81259c6.14257,-9.17322 5.79614,-18.69823 1.47454,-28.3866c-0.20996,-0.47061 -1.45733,-0.47844 -2.69189,-0.08786m78.02307,68.98214c-2.94257,1.31018 -6.77283,1.86273 -8.65997,4.07373c-5.48847,6.43042 -5.02735,14.41455 -3.79816,22.21954c0.95795,6.08258 3.82172,11.26511 7.97766,15.83688c4.45941,-6.4906 0.00861,-11.51834 -1.82336,-16.7536c-3.02759,-8.65201 0.39276,-17.67743 8.73828,-21.36682c-0.70801,-1.12674 -1.39392,-2.21829 -2.43445,-4.00973m-113.11658,5.56155c-0.59008,6.69269 0.21472,13.04239 4.18543,18.78864c3.63202,-2.2891 3.2395,-4.99103 2.73785,-8.40809c-0.62213,-4.23864 -0.94122,-9.08438 0.53076,-12.93271c2.08118,-5.44107 5.59339,-10.45333 9.11512,-15.18667c2.71301,-3.64639 2.1499,-5.67844 -2.05066,-7.82428c-5.54791,7.88951 -11.74781,15.21161 -14.5185,25.56311m18.53943,-87.73831c-0.7406,-1.82326 -1.48126,-3.6465 -2.34094,-5.76297c-13.29578,13.53842 -21.38367,33.60589 -12.33368,46.28238c0.79053,-4.1043 1.47028,-6.93853 1.8504,-9.8124c0.34546,-2.6116 0.13001,-5.30636 0.57117,-7.8947c1.47882,-8.67631 6.901,-15.29396 12.25305,-22.81231m117.80213,123.69269c-0.22925,2.19198 -1.00483,4.49936 -0.57142,6.55136c0.84205,3.98639 2.69758,7.75931 3.53217,11.74652c1.68482,8.05035 -1.70154,12.97925 -9.35498,14.30816c-0.17413,5.7963 1.88464,7.52472 6.95404,5.25257c2.10199,-0.94214 4.19305,-2.79221 5.36322,-4.77564c4.82629,-8.18033 4.51209,-16.85635 0.8606,-25.28238c-1.36304,-3.14538 -4.19751,-5.65313 -6.78363,-7.80059m-120.68256,-26.38474c-14.12286,12.13293 -20.77643,32.17886 -9.49377,43.69278c0.32971,-3.81287 0.57006,-6.5697 0.80615,-9.32696c0.40222,-4.69858 -0.09644,-9.71988 1.44391,-14.00934c1.68976,-4.70563 4.91937,-9.0109 8.12213,-12.96939c2.30371,-2.84739 2.63342,-4.7342 -0.87842,-7.38709m16.52454,17.91095c6.96618,-11.0209 12.36944,-22.29132 5.28906,-35.61044c-1.36469,2.49334 -2.04456,5.14044 -2.47266,7.82763c-0.74951,4.70487 -0.52862,9.75287 -2.2146,14.07132c-2.01715,5.16684 -5.32403,9.92472 -8.60919,14.47184c-2.5835,3.57605 -2.19775,5.80581 1.83728,7.90884c1.95404,-2.70657 3.87927,-5.37326 6.17011,-8.66919m94.25909,11.31549c-1.50189,4.35346 2.37927,4.54077 4.48969,6.39682c7.73095,-22.00348 6.30944,-38.84988 -4.9488,-44.56601c2.74543,12.85517 6.3108,25.17731 0.45911,38.16919m-93.82831,-113.82021c8.18762,-10.5906 10.72266,-21.85386 4.11035,-34.27378c-3.79339,2.37422 -2.78741,5.86903 -2.68115,9.37898c0.12225,4.0408 0.3794,8.4568 -1.04333,12.07184c-1.90186,4.83261 -4.91449,9.42941 -8.2826,13.42593c-3.24511,3.85053 -2.24151,6.04352 1.26099,8.62727c2.21997,-3.00135 4.27869,-5.78471 6.63574,-9.23024m107.28858,-9.18861c-1.43128,7.87077 -7.16669,14.20456 -12.5918,12.68825c-4.6142,-1.28964 -5.70947,1.27493 -7.59674,3.93492c8.53625,4.5094 16.66858,2.30132 23.10907,-6.05929c4.72363,-6.13187 4.49805,-14.0593 -0.69312,-19.86356c-3.14843,2.2186 -4.96234,4.73472 -2.22741,9.29968m-2.73377,-18.43852c-1.41589,2.01161 -2.57977,4.27743 -4.29974,5.98236c-3.68872,3.65656 -1.70044,5.90289 1.36963,8.24674c13.4223,-14.10784 15.56646,-32.9162 3.37738,-35.9934c0,3.04761 -0.80164,6.21811 0.17627,8.68259c1.73547,4.37413 1.71447,8.295 -0.62354,13.08171m-22.29345,164.57997c0.66534,1.07123 1.33074,2.14246 1.99609,3.21368c1.34839,-3.06942 2.30218,-5.94101 1.52508,-8.22314c-2.94335,-8.64407 -1.88916,-16.87674 0.84656,-25.30988c1.0622,-3.27438 -0.82373,-5.60495 -4.76489,-5.72482c-2.94214,11.98883 -7.164,23.67465 0.39716,36.04416m-91.4101,-81.57924c1.53772,1.82947 3.07538,3.65894 4.6131,5.48842c0.64593,-0.12955 1.29181,-0.25909 1.93774,-0.38864c0,-2.18772 0.90534,-5.06972 -0.15112,-6.44727c-5.64581,-7.36172 -11.78156,-14.34777 -17.79254,-21.5169c-3.1189,4.167 -2.54334,7.35931 0.83374,10.71011c3.62732,3.59921 6.74133,7.71579 10.55908,12.15428m-2.58722,31.56548c2.01788,2.60229 4.03577,5.20459 6.05371,7.80688c0.60864,-0.21084 1.21735,-0.42169 1.82599,-0.63251c0,-2.18707 0.8786,-4.9895 -0.14905,-6.45675c-4.97876,-7.10831 -10.4693,-13.85816 -15.97088,-20.98416c-2.45057,3.23965 -3.55707,5.99176 -0.60578,9.29913c2.96308,3.3205 5.60114,6.93097 8.84601,10.96741m3.51947,37.44088c0.97272,1.29117 1.94543,2.58234 3.8609,5.12497c0.53156,-3.76562 2.01734,-6.91739 1.01819,-8.46929c-4.72192,-7.33411 -10.12354,-14.23069 -15.30725,-21.31672c-3.80658,3.32059 -3.34955,6.22388 -0.58185,9.64664c3.74573,4.63223 7.05756,9.61523 11.01001,15.0144m-9.58673,-125.46455c-3.02063,0.66679 -4.81274,4.06784 -3.04358,6.36978c5.30402,6.90103 10.81415,13.64363 16.26849,20.47897c3.44233,-3.61805 3.55732,-5.12702 0.54938,-9.04344c-4.42413,-5.76031 -8.94208,-11.44859 -13.77429,-17.80531m0.05688,-22.08473c4.02106,5.43048 8.04212,10.86096 12.06318,16.29144c0.49816,-0.15043 0.99633,-0.30087 1.4945,-0.45131c0.45691,-1.92343 1.9524,-4.55171 1.20276,-5.6562c-4.96521,-7.31569 -10.41205,-14.30449 -15.70685,-21.40604c-5.0235,4.04233 -2.0429,7.32977 0.94641,11.22211m104.75745,145.6987c5.39398,4.28189 10.78803,8.56378 16.35748,12.98498c2.0882,-3.35885 1.65863,-6.4078 -1.21154,-8.79422c-4.62207,-3.84304 -9.4726,-7.41143 -14.95075,-11.65707c-0.25488,2.71814 -0.44623,4.75873 -0.19519,7.46631m7.8432,-129.13887c1.13202,2.29634 2.26398,4.59269 3.41986,6.93754c4.71527,-1.91836 5.29987,-4.94648 2.89862,-8.74438c-2.54187,-4.02028 -5.25049,-7.93507 -7.86932,-11.87048c-4.48279,2.76197 -4.6272,5.86648 -1.46613,9.47254c0.96875,1.1052 1.71399,2.40627 3.01697,4.20478m5.94879,-25.55857c-2.75793,-2.76738 -5.4187,-5.64451 -8.33752,-8.23028c-0.79938,-0.70821 -2.3725,-0.54305 -3.59058,-0.77866c-0.09582,1.25605 -0.74817,2.89225 -0.1936,3.70398c2.77734,4.06578 5.76935,8.00248 8.97028,11.74109c0.4436,0.51808 3.44348,-0.05923 3.57983,-0.57432c0.42621,-1.60947 0.04706,-3.43215 -0.42841,-5.86181z" fill="#F4F4F4"/>
  <path id="svg_3" d="m1,158.46866c0.72405,-1.31929 2.01278,-2.12406 2.0862,-3.02756c0.88921,-10.94208 1.58038,-21.90007 2.37332,-32.8503c0.14121,-1.95 0.51127,-3.88343 0.72212,-5.43146c67.80508,0 135.18346,0 203.22133,0c0.23747,3.04301 0.44224,6.45484 0.77924,9.85355c1.80462,18.20058 3.69599,36.39289 5.38752,54.60382c0.17461,1.87989 -0.77424,3.86413 -1.2018,5.79993c-1.81959,-1.43153 -4.59879,-2.5076 -5.28462,-4.35908c-2.35837,-6.36698 -3.92125,-13.02442 -5.90336,-19.53583c-3.62052,-11.89372 -7.76517,-23.94592 -19.30866,-30.23888c-6.9364,-3.78139 -15.15231,-5.96594 -23.04258,-7.04558c-8.64792,-1.1833 -17.5828,-0.26937 -27.04667,-0.26937c0,1.48338 0.0002,3.08612 -0.00001,4.68884c-0.00962,70.6412 -0.01938,141.28241 -0.0279,211.92361c-0.00013,1.16623 0.00043,2.33274 0.02511,3.4986c0.21437,10.12668 2.88586,13.26971 12.93655,14.83353c5.42047,0.84338 10.93137,1.17477 16.30063,2.24362c2.09297,0.41668 5.6026,2.34146 5.53122,3.37692c-0.20807,3.01804 -2.93405,3.62155 -5.98143,3.55722c-23.80283,-0.50262 -47.60837,-1.02301 -71.41503,-1.14014c-12.8126,-0.06305 -25.62887,0.66279 -38.44397,1.01514c-1.66341,0.04575 -3.47252,0.38791 -4.95367,-0.13916c-1.421,-0.50571 -2.50331,-1.96313 -3.73447,-3.00229c1.20988,-0.80893 2.35578,-2.18106 3.64098,-2.32705c4.95194,-0.56257 9.94917,-0.72211 14.92776,-1.05796c1.1617,-0.0784 2.32202,-0.22305 3.47359,-0.39874c9.79297,-1.49408 13.03415,-4.90836 13.07023,-14.69574c0.18481,-50.14716 0.26796,-100.29471 0.36329,-150.44217c0.04181,-21.99203 0.0282,-43.98419 0.03949,-65.97629c0.00101,-1.96283 0.00014,-3.92564 0.00014,-6.57885c-15.66233,0.74784 -31.03832,-0.31182 -45.24683,6.76711c-11.43444,5.69686 -17.06424,15.96122 -20.37397,27.5978c-2.22388,7.81888 -3.29899,15.9617 -5.44904,23.8058c-0.82032,2.99278 -1.15115,8.10796 -7.20646,6.11324c-0.25825,-9.98517 -0.25825,-20.33939 -0.25825,-31.16228m109.06389,-35.0707c-1.48639,-0.11637 -2.98803,-0.42849 -4.45643,-0.31404c-5.36837,0.4184 -11.67238,-0.51885 -14.47238,5.51834c-3.75089,8.08745 -2.97105,16.55173 0.15301,25.05262c1.60435,-2.29872 2.77223,-4.72116 3.12693,-7.25736c0.41025,-2.93341 -0.17132,-5.99853 0.16665,-8.9505c0.73084,-6.3835 1.74638,-7.19412 8.23646,-7.3235c3.15807,-0.06297 6.32493,0.18176 9.47838,0.05412c3.80247,-0.15394 5.07416,1.77411 5.74702,5.28856c2.02945,10.59999 -1.29274,19.71468 -7.46532,27.95834c-2.65705,3.54857 -2.37215,6.02251 1.12487,8.67692c1.11669,-1.43422 2.19327,-2.66509 3.10252,-4.00916c6.47056,-9.56482 10.86062,-19.68993 9.2484,-31.68352c-1.28025,-9.52407 -3.69401,-12.11568 -13.99011,-13.01082m6.93871,226.89785c-4.54599,0.76303 -9.07213,1.98523 -13.64255,2.18271c-7.05432,0.3048 -8.36287,-1.52033 -9.07473,-8.69086c-0.94232,-9.49182 3.14196,-17.21326 8.46669,-24.29163c2.73663,-3.63791 1.98524,-5.68564 -1.60173,-8.5205c-2.2847,3.35357 -4.57971,6.4884 -6.62967,9.77603c-5.72399,9.17971 -7.22321,19.14187 -4.88431,29.62997c1.08757,4.87689 4.19655,7.90064 9.42316,8.01395c5.14852,0.11163 10.30574,0.11096 15.4521,-0.05661c4.22767,-0.13761 7.12479,-2.22928 8.3731,-6.44986c2.16058,-7.30509 1.69522,-14.52655 -0.85838,-21.94534c-1.66075,2.79141 -2.86277,5.71868 -3.43532,8.76434c-0.66908,3.55899 -0.789,7.22125 -1.58836,11.5878m-4.20618,-205.49671c-5.51744,-5.68657 -8.29019,-5.97838 -12.67282,0.40607c-4.73997,6.905 -9.07042,14.26364 -12.34446,21.95047c-2.87103,6.7406 -1.96098,13.91466 3.31509,20.26254c1.17189,-2.59245 1.71838,-5.23697 1.84118,-7.901c0.14303,-3.10284 -0.74153,-6.38289 -0.02917,-9.3055c2.20083,-9.02925 7.79135,-16.16473 13.74419,-23.17012c2.24047,2.75638 4.21447,5.18494 6.18847,7.6135c0.68863,-0.28192 1.37726,-0.56386 2.06589,-0.84578c-0.54452,-2.80054 -1.08905,-5.60106 -2.10837,-9.01018m-9.33929,197.64838c4.24249,1.78293 7.50359,0.30801 9.78674,-3.32187c3.26043,-5.18356 6.59174,-10.36096 9.34166,-15.81866c4.59268,-9.11502 5.75257,-18.47266 -0.32232,-27.96982c-1.14578,2.37359 -2.60128,5.06 -2.13681,7.35843c2.92047,14.45202 -6.55201,23.78467 -13.31849,35.5878c-2.80297,-3.58912 -4.83219,-6.18747 -6.92124,-8.86243c-3.49923,5.7872 -2.97176,7.90134 3.57046,13.02655m-16.99629,-95.651c0.75698,3.16227 1.51396,6.32455 2.37283,9.9125c3.62434,-3.0149 4.85864,-5.66539 3.75628,-9.95402c-0.9082,-3.53325 -1.06754,-7.94623 0.26367,-11.23071c3.17435,-7.83202 7.42604,-15.22739 11.54528,-23.3996c-0.54492,-0.66564 -1.73391,-2.118 -3.39855,-4.15138c-3.59128,5.4588 -7.01357,10.09481 -9.82793,15.07443c-3.98309,7.04751 -6.19605,14.62143 -4.71158,23.74878m3.08831,14.32843c-5.28089,10.58569 -4.83221,20.47418 2.45425,29.10586c0.44834,-3.96032 1.61032,-6.91015 0.89886,-9.303c-2.18679,-7.35483 -0.51408,-13.66132 3.65515,-19.69632c2.90118,-4.1995 5.69061,-8.47616 8.69103,-12.959c-1.54516,-1.36968 -2.93746,-2.60389 -4.73581,-4.19802c-3.84116,5.87775 -7.26365,11.11483 -10.96348,17.05048m5.41999,-63.57814c3.24309,-5.34966 6.48618,-10.69933 9.91152,-16.34963c-0.91966,-1.23892 -2.05974,-2.77478 -3.23524,-4.35836c-11.85553,12.67778 -20.80609,32.32446 -11.99002,45.62255c0.92861,-3.03144 1.88988,-5.36702 2.33849,-7.79724c1.00666,-5.45324 1.75864,-10.95349 2.97525,-17.11732m28.57898,30.09831c-1.02461,2.45572 -3.27773,5.13966 -2.87093,7.32944c2.33023,12.54307 -3.22315,22.30673 -10.23584,31.64261c-2.57654,3.43008 -2.37048,5.82266 1.6316,7.64209c14.65179,-17.61335 17.93869,-30.29638 11.47517,-46.61414m-10.65179,66.76605c-0.79238,1.25846 -1.40406,2.68952 -2.41075,3.74323c-3.11836,3.26407 -2.06484,5.70889 1.15369,7.98449c13.2616,-15.35153 20.26921,-33.42138 11.60614,-44.82717c-0.92814,2.60247 -2.65235,4.95553 -2.34925,7.00937c1.4451,9.79168 -1.99727,17.90884 -7.99983,26.09008m3.33743,-71.72009c-2.15737,3.12796 -4.17742,6.36288 -6.50867,9.35538c-2.60644,3.34573 -1.96225,5.5334 1.85597,7.02904c15.27009,-14.99808 19.09155,-30.21825 10.53525,-45.00034c-1.08208,2.47774 -2.53199,5.31671 -1.9472,7.64456c1.87349,7.45767 0.62764,14.08969 -3.93535,20.97136m-29.76049,87.5321c1.12631,4.12678 2.25263,8.25358 3.37894,12.38034c0.79659,-0.07171 1.59319,-0.14343 2.38979,-0.21514c0.29296,-2.73026 1.32763,-5.63807 0.72532,-8.154c-1.27537,-5.32727 -0.93457,-10.31765 1.7041,-14.94116c3.15757,-5.53265 6.78074,-10.79959 10.29604,-16.32916c-1.06762,-1.1991 -2.13649,-2.3996 -3.79468,-4.26202c-7.25397,9.46142 -15.08498,17.99584 -14.69951,31.52114m25.3646,-115.75767c-2.36046,2.95769 -5.38102,5.90373 -0.29521,9.15108c14.02673,-16.01789 19.54767,-27.19686 10.21343,-42.88047c-0.96898,2.78885 -1.4904,5.65661 -1.76015,8.54784c-0.40646,4.35661 0.12519,8.97003 -1.15494,13.02861c-1.30204,4.12802 -4.31545,7.71626 -7.00313,12.15294m-10.51332,46.67094c4.32453,4.95082 8.64905,9.90165 13.0471,14.93665c2.58218,-2.69429 3.36648,-5.32886 0.80684,-8.31542c-5.64244,-6.58351 -11.26139,-13.18714 -16.90211,-19.79684c-3.2638,3.28662 -2.9172,6.39746 0.14015,9.51169c0.91965,0.93673 1.65528,2.05415 2.90802,3.66392m4.85083,62.16602c-2.11799,-2.87488 -4.23597,-5.74976 -6.35396,-8.6246c-0.41287,0.06378 -0.82575,0.12759 -1.23862,0.1914c-0.27768,2.24701 -1.59873,5.16559 -0.65745,6.62802c4.78295,7.431 10.15214,14.48465 15.38635,21.76834c2.94025,-3.54885 3.7498,-6.41156 0.36824,-9.86672c-2.73828,-2.79792 -4.71027,-6.34574 -7.50456,-10.09644m-5.88891,-132.14101c4.29356,5.70857 8.58711,11.41713 12.88067,17.12571c0.44463,-0.10289 0.88927,-0.20577 1.33391,-0.30866c0.39356,-2.08096 1.84549,-4.86693 1.00631,-6.12672c-4.88767,-7.33742 -10.31315,-14.31659 -15.56934,-21.43361c-3.86236,3.6374 -2.92622,6.91883 0.34845,10.74328m0.95218,23.72837c-0.70332,-0.20144 -1.40664,-0.40285 -2.10996,-0.60428c-0.49405,1.72569 -1.97419,4.13946 -1.32612,5.06825c5.18887,7.43651 10.78006,14.59228 16.30568,21.91029c3.49354,-3.31082 3.21288,-6.27917 0.61516,-9.45103c-4.41115,-5.38609 -8.7216,-10.85465 -13.48476,-16.92323m9.86188,82.58494c-4.14928,-5.20456 -8.29856,-10.40909 -12.37179,-15.51825c-3.53768,3.59903 -2.68518,6.60983 0.02677,9.82263c3.94881,4.6781 7.61198,9.59705 11.41178,14.40155c0.94329,1.19269 1.9436,2.34031 2.91567,3.50623c3.66367,-3.27606 3.33067,-6.0498 0.56297,-8.89667c-0.79741,-0.82022 -1.36569,-1.86316 -2.5454,-3.31549z" fill="#F4F4F4"/>
  <path id="svg_5" d="m790.1239,256.22092c-2.96484,4.60211 -1.69781,8.59509 0.06983,12.88678c5.36419,13.02365 0.93463,30.52188 -10.44104,39.78537c-3.08399,2.51138 -3.39319,5.20471 -3.84821,8.46493c-1.77026,12.68439 -6.6499,23.85877 -18.08575,30.55023c-5.24427,3.06852 -9.65851,6.65247 -13.8656,10.9246c-17.51075,17.78176 -43.74006,16.74139 -60.30347,-2.15735c-0.42273,-0.48227 -0.92993,-0.89051 -1.69495,-1.61475c-7.47949,9.55539 -17.29028,14.82645 -29.14514,16.11734c-11.35742,1.23669 -21.44415,-1.97498 -29.71631,-9.85434c-5.40344,-5.14697 -10.77539,-10.00925 -17.33807,-13.89227c-11.41419,-6.75342 -16.01721,-18.22833 -17.65271,-30.87088c-0.43103,-3.33228 -1.41712,-5.77136 -3.83576,-8.12766c-12.31701,-11.99981 -15.65167,-26.01248 -9.32415,-42.28241c0.88494,-2.27557 0.73968,-5.53003 -0.17908,-7.83243c-4.95844,-12.42645 -3.53528,-23.97959 3.56854,-35.14048c1.05426,-1.65633 1.65649,-3.94881 1.5838,-5.91428c-0.33233,-8.98521 1.77722,-17.19691 5.09638,-25.61033c2.17352,-5.50934 1.08868,-12.34581 1.15527,-18.59118c0.00824,-0.76936 -1.82178,-1.66786 -2.91046,-2.32275c-13.79889,-8.30052 -26.21893,-18.52509 -35.90271,-31.20003c-21.97852,-28.76746 -10.76605,-65.3352 19.04163,-80.47518c9.90814,-5.03261 20.08898,-9.52597 30.04321,-14.47109c10.84997,-5.39019 20.06714,-12.69047 26.97406,-22.88994c3.48376,-5.14459 5.59704,-10.24592 4.69617,-16.93386c0.53479,0.85349 1.27801,1.64062 1.57397,2.57015c8.0871,25.39859 1.50946,43.28832 -21.61408,60.43654c-7.70147,5.71138 -15.12121,11.90589 -22.05688,18.52203c-9.8797,9.4246 -8.76251,20.3657 2.72858,27.90694c3.92108,2.57333 8.7149,3.85908 13.17968,5.54912c3.95875,1.49847 6.70179,-0.22239 9.54847,-3.18741c8.14953,-8.48834 15.88,-17.68916 25.24469,-24.62591c13.10803,-9.70945 28.53088,-15.41486 44.22406,-19.97568c1.02557,-0.29805 2.30529,-0.2434 3.33526,0.07399c16.70752,5.14873 33.16864,11.09108 46.9383,22.17509c7.45349,5.99979 14.11291,13.10284 20.50811,20.26406c5.27204,5.90344 6.21283,6.7407 14.02253,4.72653c6.65417,-1.71616 12.16064,-5.26523 16.51135,-10.56334c5.23913,-6.37992 4.69281,-14.82038 -2.37982,-21.4311c-8.21875,-7.68205 -16.92737,-14.87511 -25.74762,-21.8716c-21.64716,-17.17113 -26.80036,-33.87844 -18.08747,-60.02064c0.27106,0.07057 0.77576,0.14504 0.77649,0.22411c0.15827,17.30908 11.97815,26.74853 24.69141,34.78461c9.76098,6.16995 20.44861,11.00115 31.0531,15.68249c20.98547,9.26401 34.06177,24.44917 36.42035,47.60602c1.15722,11.36196 -1.95343,22.28182 -8.3147,31.60259c-10.14105,14.85912 -23.94629,26.02304 -39.03125,35.67811c-1.43988,0.92162 -2.68201,3.12689 -2.86078,4.85567c-0.47632,4.60681 -0.39044,9.2792 -0.36468,13.9246c0.00561,1.01006 0.60925,2.05805 1.08142,3.0177c3.59417,7.30431 5.47711,14.82395 4.38623,23.11948c-0.32098,2.44069 0.91308,5.45573 2.28369,7.68562c6.28412,10.22408 8.18042,20.86982 3.96411,32.72219m-82.26788,50.02759c-13.02362,4.09646 -19.36597,16.92697 -18.46137,25.61193c1.16077,11.14362 7.65558,20.29801 20.38892,23.58515c9.29425,2.39932 19.77856,-2.31107 26.27643,-11.2623c1.8919,-2.6062 4.88177,-4.70886 7.79523,-6.21851c5.8966,-3.05523 11.15942,-6.5588 14.03002,-12.83178c2.29694,-5.01935 4.11188,-9.91706 2.29303,-15.72925c-1.15399,-3.68753 0.24329,-6.85004 4.23322,-9.01608c10.89172,-5.91303 15.36633,-16.33017 11.75861,-24.63248c-6.33143,1.62805 -12.45838,3.67337 -18.75135,4.67523c-5.17132,0.82324 -8.02374,-1.55679 -8.42041,-5.44962c-0.664,-6.51602 0.82337,-8.6719 6.77271,-9.9074c1.79236,-0.37223 3.57391,-0.80576 5.3443,-1.27259c16.3952,-4.32345 21.69885,-22.46353 9.76245,-34.63725c-4.07434,-4.15529 -4.47925,-8.30165 -2.72248,-12.99974c2.38105,-6.36742 -0.15216,-11.49919 -2.92785,-17.09397c-1.87641,1.05178 -3.30762,1.83007 -4.71497,2.6494c-1.54388,0.89888 -3.06579,1.83562 -4.56769,2.73809c2.24628,4.97532 2.11969,12.36212 -0.63855,19.08358c-4.58776,11.17966 -12.64349,18.71433 -24.73877,22.80411c3.7295,2.4892 7.48523,4.7822 11.5611,5.83101c5.01502,1.29053 8.03821,3.9442 7.87244,8.57774c-0.15052,4.20536 -3.39704,6.78882 -8.72943,6.94669c-9.39148,0.27805 -21.46973,-7.42017 -24.71949,-16.4856c-1.3573,-3.7864 -3.38299,-5.44683 -7.0924,-6.43859c-10.73767,-2.87087 -16.69886,-10.0109 -16.1471,-19.14074c-1.4043,0.07914 -2.75891,0.15549 -3.84607,0.21675c0,24.45971 0,48.45704 0,72.03263c4.72693,-2.13046 9.13379,-4.37949 13.73432,-6.11551c4.51001,-1.70178 9.42737,0.57739 10.69818,4.48636c1.3565,4.17224 -0.56586,7.69214 -6.04303,9.99274m-64.53467,-52.47005c-6.4693,10.77559 -17.0069,15.07374 -29.68048,12.14976c0.75073,2.65915 2.37433,5.44229 2.09289,8.01721c-0.62939,5.75879 -5.90942,8.1695 -13.35144,6.22486c-4.86853,-1.27216 -9.54986,-3.26062 -14.33001,-4.9335c-1.86402,12.45495 0.80115,18.44305 12.00677,25.4006c3.31336,2.05725 4.77295,4.46222 4.2771,8.13406c-1.98285,14.68375 3.54688,23.88871 17.32056,29.55051c2.38763,0.98142 4.14465,3.47904 6.21777,5.24725c4.21204,3.59259 7.89228,8.50037 12.76325,10.50266c16.40655,6.74411 34.28704,-6.23367 34.3327,-24.383c0.08502,-33.7941 0.02551,-67.58859 0.01459,-101.3829c-0.00031,-0.80039 -0.13556,-1.60074 -0.22278,-2.56665c-2.72443,-0.3738 -5.29383,-0.72632 -8.74011,-1.19914c4.28253,8.46133 -0.1399,12.78502 -6.28028,16.27168c-2.1466,1.21892 -4.30609,2.58081 -6.6391,3.27118c-4.80639,1.42227 -7.92169,4.32197 -9.78143,9.69542m-40.58057,-60.01062c17.02936,12.2563 35.96027,20.06979 56.65863,23.11168c39.84613,5.85594 76.35663,-2.09153 108.3725,-27.43289c0.96375,-0.76281 2.28967,-1.89248 2.31684,-2.88212c0.19818,-7.21827 0.10675,-14.44448 0.10675,-21.91255c-1.86176,0.28022 -2.43714,0.2083 -2.81769,0.44696c-14.64411,9.18421 -30.58936,15.3135 -47.22418,19.61684c-9.25013,2.39294 -18.11902,4.87846 -24.80616,12.52147c-2.39587,2.73834 -6.18872,4.45453 -9.63153,5.99443c-1.7923,0.80162 -4.6795,1.00943 -6.25805,0.08914c-4.8349,-2.81863 -9.16871,-6.48154 -13.90314,-9.49263c-3.96503,-2.52177 -8.01605,-5.13588 -12.38251,-6.75711c-14.14325,-5.25127 -28.51483,-9.88792 -42.65735,-15.14105c-5.00946,-1.86075 -9.61371,-4.8125 -14.84924,-7.4948c-0.23871,5.37883 0.02612,10.24338 -0.77686,14.92475c-1.16241,6.77693 1.50037,11.05319 7.85199,14.40788m87.59204,-114.50355c-5.81982,-2.37466 -11.51367,-2.14477 -17.25219,0.9202c-2.28931,33.85571 -4.59595,67.81662 -6.83258,101.78215c-0.06641,1.00721 0.29455,2.38112 0.97925,3.04386c4.16924,4.03579 8.41265,8.00589 12.8269,11.76842c0.86627,0.73832 3.14154,1.13505 3.828,0.56288c4.95618,-4.13149 9.72541,-8.49562 14.3935,-12.95391c0.58978,-0.5633 0.38476,-2.11218 0.31579,-3.18957c-1.74109,-27.19022 -3.45709,-54.3823 -5.32007,-81.56429c-0.45941,-6.70301 -1.41461,-13.37203 -2.9386,-20.36974m-114.69415,32.56747c-10.61767,-11.94725 -8.24225,-29.87584 2.84992,-41.52748c-1.15955,4.29432 -2.24134,8.30042 -3.32306,12.30652c18.17358,-15.08474 39.51422,-26.52176 48.90796,-49.58188c-2.44263,1.05224 -4.43286,2.69355 -6.63269,3.97509c-12.60492,7.34321 -25.29224,14.54519 -37.88715,21.90543c-10.08063,5.89093 -19.86053,12.34649 -26.76636,21.9614c-18.76733,26.12949 -5.89026,55.49246 18.64832,73.19076c3.97522,-5.22237 1.68243,-9.01346 -2.38806,-13.20801c-8.09735,-8.34408 -14.5542,-17.81948 -16.07355,-30.01733c5.25885,11.5468 13.393,20.76662 22.69324,29.54722c3.83825,-6.17102 7.39514,-11.88971 10.55682,-16.97296c-3.64697,-3.96482 -6.89002,-7.49055 -10.58539,-11.57876m202.87793,-36.8369c3.43152,2.76684 6.86304,5.53368 10.29462,8.30052c0.31238,-0.15845 0.62475,-0.31689 0.93713,-0.47534c-0.92511,-3.65953 -1.85016,-7.31906 -2.77527,-10.97859c5.74555,6.00406 9.08631,13.14913 9.32434,21.22902c0.39814,13.51143 -8.2998,22.07349 -18.08691,30.01216c3.77356,5.96228 7.35767,11.62526 11.64264,18.39558c7.5025,-9.38106 14.44958,-18.06765 21.52148,-26.91026c-0.38549,1.77534 -0.31176,3.92065 -1.26525,5.40708c-4.71253,7.34691 -9.33405,14.80479 -14.71759,21.64939c-3.36823,4.28218 -5.62861,7.89563 -1.11609,13.50281c4.74646,-4.94107 9.59246,-9.67379 14.0877,-14.71901c19.25,-21.60518 16.88526,-52.8002 -6.72039,-69.48645c-19.45514,-13.7524 -40.39045,-25.41089 -61.79035,-38.69281c1.1731,2.74201 1.5669,4.55583 2.58588,5.8933c5.00805,6.57337 9.6842,13.5078 15.43329,19.37885c6.12182,6.25167 13.31451,11.4546 20.64477,17.49375m-186.5227,155.56518c-10.47498,13.51203 -2.86371,28.47991 8.59588,32.93065c4.01978,1.56119 8.47809,1.99323 12.73957,2.94162c0.1231,-0.66604 0.31237,-1.01938 0.21014,-1.23358c-3.91803,-8.2099 -2.23572,-11.42486 6.48932,-12.89146c4.17633,-0.70198 7.68079,-2.64801 9.62884,-6.79549c-19.91125,-7.47893 -31.56042,-28.63683 -23.45098,-42.62375c-2.21363,-1.36108 -4.43159,-2.72481 -6.844,-4.2081c-2.90979,5.42282 -5.79919,10.49919 -3.46887,16.70172c2.11944,5.64098 1.80499,10.69846 -3.8999,15.17839m5.33654,-90.68107c1.90778,-3.96537 3.81556,-7.93073 5.94751,-12.36209c-4.3377,-1.26316 -8.2517,-2.40293 -12.52166,-3.64635c-4.75794,8.97545 -8.85956,17.95877 -9.96527,28.0274c-0.98407,8.96097 -0.71961,9.32416 7.90124,13.066c2.79364,-8.11836 5.58826,-16.23961 8.63818,-25.08496m171.92255,4.38052c2.33826,7.05534 4.67658,14.1107 7.01666,21.17137c8.74945,-3.8235 9.71729,-4.38153 7.74488,-13.14987c-1.97937,-8.79942 -5.55103,-17.25082 -8.65259,-25.77182c-0.30432,-0.83588 -2.33093,-1.70923 -3.34046,-1.50243c-3.36206,0.68872 -6.62481,1.86187 -10.10791,2.90387c2.43903,5.45836 4.71863,10.5599 7.33942,16.34888m-135.15753,72.21233c-4.9502,-2.13652 -9.90039,-4.27303 -14.93714,-6.4469c-0.7962,8.39087 4.58722,16.42251 13.0763,19.87829c8.41626,3.42612 17.83972,0.7988 23.86401,-6.58375c-7.06061,-2.1918 -14.16198,-4.39624 -22.00317,-6.84764m72.84625,6.91832c-0.02057,0.79356 -0.39581,1.93818 -0.00928,2.32873c7.3288,7.40437 19.72974,7.72913 27.55115,0.71424c4.24262,-3.80509 7.841,-8.02251 7.51373,-13.59899c-11.49719,3.47533 -22.88836,6.91861 -35.0556,10.55602z" fill="#F9F9F9"/>
  <path id="svg_6" d="m485.02332,184c0,49.32286 -0.02875,98.14575 0.0437,146.96854c0.00741,4.97995 0.36105,9.99322 1.00799,14.93158c1.5051,11.48858 6.61334,16.19125 18.17981,17.34231c3.31031,0.32944 6.71332,0.48343 9.85645,1.43555c1.716,0.51986 2.97674,2.54257 4.44281,3.88757c-1.61591,0.70633 -3.24079,2.04831 -4.84638,2.02557c-35.27203,-0.49948 -70.54226,-1.13207 -105.81155,-1.80673c-2.84302,-0.05435 -6.60938,0.85746 -7.29282,-3.10659c-0.11517,-0.66797 4.47971,-2.54551 7.06641,-3.19584c4.80215,-1.20733 9.80304,-1.64172 14.58175,-2.91946c4.87937,-1.30463 7.1764,-4.71143 7.20057,-10.00287c0.13766,-30.14764 0.45404,-60.29446 0.68798,-90.44171c0.04902,-6.31424 0.00715,-12.62918 0.00715,-19.60263c-28.82721,0 -57.37525,0 -86.4007,0c-0.07941,1.2744 -0.26312,2.85722 -0.26416,4.44019c-0.02255,34.65911 -0.03641,69.31823 -0.02295,103.97738c0.00348,8.90802 2.3248,11.88544 11.11755,13.685c4.55012,0.93121 9.25901,1.09082 13.80445,2.03882c1.66662,0.34759 3.06866,1.96386 4.59143,3.00137c-1.62473,0.74652 -3.25418,2.14313 -4.87335,2.13138c-8.81729,-0.06418 -17.6334,-0.75565 -26.44748,-0.7142c-25.80838,0.1213 -51.6153,0.52865 -77.42365,0.69882c-2.89831,0.01913 -7.6337,1.32214 -7.6654,-3.0846c-0.03202,-4.45028 4.79126,-2.67901 7.58465,-3.09073c4.6019,-0.67834 9.29847,-0.73934 13.88535,-1.48812c6.41516,-1.04731 8.46011,-3.44254 9.1683,-9.87827c0.18204,-1.65424 0.33502,-3.32242 0.33563,-4.98425c0.02659,-69.61719 0.07935,-139.23445 -0.00695,-208.85152c-0.01218,-9.80166 -3.36145,-13.62862 -12.32779,-13.96711c-4.81653,-0.18183 -9.64673,-0.47353 -14.41821,-1.10988c-1.60459,-0.21398 -3.04685,-1.64495 -4.5633,-2.51968c1.54694,-0.81008 3.08331,-2.29939 4.64246,-2.32366c13.49396,-0.21006 26.99203,-0.17008 40.48886,-0.17849c20.82883,-0.01298 41.65762,-0.00823 62.48645,-0.00151c1.8323,0.0006 3.8967,-0.44046 5.43066,0.25531c1.48923,0.67547 2.43415,2.55108 3.61807,3.89966c-1.10607,0.95617 -2.1224,2.58942 -3.33392,2.74998c-4.9407,0.65476 -9.94854,0.78053 -14.91781,1.24791c-7.05426,0.66348 -9.60068,3.12826 -10.71494,10.1515c-0.18246,1.15002 -0.3429,2.31947 -0.34363,3.48005c-0.01864,30.15442 -0.01474,60.30884 -0.01474,90.72687c0.95191,0.19649 1.8732,0.55354 2.79404,0.55243c25.33978,-0.03096 50.67984,-0.04318 76.01907,-0.19299c7.72919,-0.04569 7.75049,-0.235 7.75061,-7.90622c0.00034,-24.32784 0.1716,-48.65816 -0.15683,-72.98165c-0.07443,-5.51338 -1.38876,-11.16351 -3.05352,-16.46124c-1.88141,-5.98726 -6.77024,-8.71355 -13.01987,-9.07483c-3.64252,-0.21056 -7.3056,-0.47588 -10.88425,-1.12881c-1.06512,-0.19434 -1.8753,-1.78606 -2.8023,-2.73749c1.07611,-0.81361 2.06033,-1.83154 3.25976,-2.37086c0.83643,-0.37609 1.96777,-0.10691 2.96741,-0.10767c35.3255,-0.02684 70.65103,-0.06259 105.97653,-0.04794c2.03992,0.00085 4.07971,0.41393 6.11963,0.63517c0.12811,0.53938 0.25622,1.07876 0.3844,1.61814c-1.57349,0.76992 -3.07587,1.94159 -4.73358,2.2348c-5.07328,0.89733 -10.22651,1.33437 -15.31156,2.17486c-9.4266,1.55809 -12.40054,4.47358 -13.01449,14.05196c-0.63831,9.95828 -0.62662,19.96011 -0.81656,29.94449c-0.09818,5.16168 -0.01724,10.32678 -0.01724,15.99034m-24.93915,-15.05127c0.68603,1.48721 1.37204,2.97444 2.30938,5.00653c3.1521,-4.41774 4.74555,-6.72131 6.4104,-8.97212c6.7457,-9.1198 9.45807,-19.18071 7.5004,-30.47943c-1.0582,-6.10715 -3.73367,-9.57829 -9.80725,-10.09946c-6.25446,-0.53669 -12.62854,-0.51313 -18.87244,0.0818c-2.41507,0.23011 -5.58746,2.16376 -6.74377,4.24828c-4.51739,8.14366 -3.68329,16.73657 -0.996,25.87002c3.45089,-3.22441 5.17492,-6.2445 4.43332,-10.49964c-0.3631,-2.08335 -0.11728,-4.32778 0.16418,-6.45818c0.82394,-6.23733 2.05866,-7.37176 8.22217,-7.52025c3.8215,-0.09207 7.64902,0.06122 11.47378,0.10959c3.09232,0.03909 4.89701,1.56436 5.58008,4.60629c1.62558,7.23952 1.17539,14.15413 -2.72958,20.67542c-2.51041,4.19231 -4.85748,8.48242 -6.94467,13.43115m-22.26706,171.62637c0.32522,3.13172 0.21734,6.38828 1.07599,9.36618c1.32583,4.5983 4.37463,7.98493 9.50934,8.19117c5.97882,0.24008 12.02932,0.48666 17.94155,-0.19687c2.77896,-0.32126 5.91138,-2.27811 7.81974,-4.43506c3.68423,-4.16431 3.44989,-18.58911 -0.63806,-24.91739c-1.16416,4.21732 -2.2136,7.35443 -2.85831,10.5726c-0.48523,2.42209 -0.54932,4.94516 -0.62549,7.42862c-0.11014,3.59021 -2.16489,5.01187 -5.43423,5.08566c-4.32508,0.09769 -8.66007,-0.05441 -12.9769,0.16901c-4.86258,0.25165 -6.75067,-2.13455 -7.34296,-6.70862c-1.29687,-10.01547 2.31668,-18.28763 8.6824,-25.55981c3.1439,-3.59153 2.69224,-6.21887 -1.11767,-8.67472c-8.24002,7.86463 -13.1637,17.98139 -14.0354,29.67923m-104.61078,-206.80092c-1.15512,-5.69177 -4.37247,-9.41207 -10.3735,-9.59387c-6.29038,-0.19058 -12.62812,-0.1516 -18.8798,0.45777c-2.11538,0.20618 -4.53787,2.06312 -5.93863,3.85476c-3.51373,4.49425 -4.79696,20.30048 0.71811,26.45774c0.96207,-3.6113 1.98789,-6.42791 2.4068,-9.33205c0.39978,-2.77162 -0.00812,-5.65079 0.25312,-8.45342c0.41009,-4.39955 2.75112,-7.00593 7.41973,-7.0277c3.32273,-0.01549 6.64878,-0.12569 9.96747,-0.01598c6.87195,0.22716 7.97318,1.65726 8.89737,8.60477c1.35156,10.16052 -3.88089,17.83976 -9.0318,25.5692c-2.89276,4.34089 -2.94082,4.62046 2.18897,7.42692c8.64523,-10.86273 15.90378,-22.19243 12.37216,-37.94814m-33.40692,222.11483c0.98611,0.59143 1.97049,1.69055 2.95865,1.694c7.92086,0.02774 15.86224,0.14123 23.75543,-0.39166c3.91336,-0.26413 6.20102,-3.71875 6.45782,-7.28244c0.47647,-6.61264 0.13645,-13.28412 0.13645,-20.52213c-1.2442,0.66656 -1.69385,0.81027 -2.01831,1.09607c-3.999,3.5227 -3.36725,8.27395 -3.52356,12.88913c-0.23612,6.97092 -1.43622,8.14572 -8.23911,8.38925c-3.65396,0.13086 -7.3201,-0.08261 -10.97455,0.04126c-4.86605,0.16492 -6.64016,-2.3428 -7.14044,-6.91952c-1.02872,-9.41092 2.19089,-17.2591 8.00372,-24.33954c2.51319,-3.06119 5.04612,-6.14161 0.2031,-9.57978c-0.74136,0.43268 -1.85712,0.72791 -2.39548,1.45227c-6.36926,8.5694 -12.4328,17.33063 -12.14398,28.68415c0.12988,5.10635 0.07556,10.37469 4.92026,14.78894m36.60251,-46.52536c-0.95621,-4.86676 -1.91242,-9.73352 -3.04206,-15.48307c-3.80594,3.53473 -5.6066,5.88437 -4.0354,10.10242c0.96683,2.59546 1.11823,6.31494 -0.03747,8.72861c-3.62476,7.57007 -7.88379,14.85672 -12.24121,22.04458c-1.48563,2.45057 -3.78513,2.28058 -5.5275,-0.36547c-1.29587,-1.96796 -2.75717,-3.827 -4.1752,-5.77637c-4.13654,4.34186 -3.54257,7.83014 1.90176,12.52103c2.93512,2.5289 8.92362,2.21884 11.30789,-0.92759c6.89032,-9.09277 14.27897,-17.99594 15.84919,-30.84414m133.68863,22.17084c2.34381,-4.38663 4.94378,-8.65827 6.97576,-13.18491c3.74048,-8.33255 3.04102,-15.13623 -1.92831,-23.35413c-2.72653,2.34766 -3.72134,4.76184 -2.89041,8.70658c0.77393,3.67422 0.33478,7.99581 -0.87213,11.59601c-1.50015,4.47494 -4.1445,8.61944 -6.63477,12.69906c-6.53988,10.71387 -6.66183,10.67224 -14.37747,0.98181c-3.76691,4.00012 -3.62936,6.75498 0.54498,10.91605c3.58649,3.57507 9.08442,3.9808 12.45441,0.49869c2.39496,-2.47467 4.23859,-5.48288 6.72794,-8.85916m-11.92661,-183.45769c2.03543,2.34726 4.07086,4.69452 6.15555,7.09854c3.35733,-5.64798 2.59012,-9.22385 -2.59604,-12.90729c-3.36011,-2.38649 -8.30997,-1.41864 -11.34482,2.65811c-3.84384,5.1635 -7.76721,10.33977 -10.92932,15.92229c-5.02576,8.87266 -5.84955,18.05218 0.05423,27.38066c3.00919,-2.34778 3.96765,-4.82335 3.11328,-8.43863c-0.66138,-2.79861 -1.03589,-6.05627 -0.25274,-8.73399c2.69213,-9.20505 7.91351,-16.95595 15.79986,-22.97969m-136.83511,-2.89917c-4.50397,-5.57082 -9.28531,-6.03992 -13.46387,-0.51087c-4.67258,6.18274 -9.05283,12.68868 -12.70953,19.51004c-4.21482,7.86246 -3.18113,15.98157 1.1184,24.0031c3.39554,-2.37218 4.70908,-4.92325 3.39982,-8.98709c-0.76755,-2.38237 -0.85023,-5.30371 -0.26343,-7.74794c2.31137,-9.62878 8.31717,-17.03333 15.19577,-24.32619c2.44009,2.91793 4.61044,5.51326 6.88098,8.22841c2.20871,-3.46055 4.03442,-6.49936 -0.15814,-10.16946m12.11096,110.61244c4.29913,-9.50098 4.26163,-18.90848 -0.08829,-28.74788c-3.50125,2.64456 -4.1951,5.17363 -3.63766,8.98013c0.62332,4.2567 0.86087,9.25786 -0.80637,13.0154c-3.23367,7.28802 -7.91794,13.9324 -12.35968,21.45038c0.60178,0.75805 1.88187,2.37067 4.02191,5.06656c4.50788,-6.8071 8.55866,-12.92395 12.87009,-19.76459m101.41733,-14.28584c0.94122,4.72256 1.88247,9.44513 2.96798,14.89146c4.21933,-2.94284 4.66663,-5.70308 4.39396,-9.36856c-0.34845,-4.68362 -0.71241,-9.88438 0.9367,-14.07216c2.25315,-5.7216 6.13382,-10.89084 9.81836,-15.93016c2.60443,-3.56206 2.58508,-5.96667 -1.55707,-8.4489c-8.4021,9.33139 -15.70855,18.97353 -16.55993,32.92832m37.50067,7.14561c-4.07108,7.10585 -8.14215,14.2117 -12.55255,21.90982c0.6437,0.81436 1.90203,2.40625 3.21151,4.06284c15.02198,-16.66461 22.03284,-32.41701 12.77018,-47.15172c-2.98774,2.00149 -3.50806,4.646 -3.09772,8.16c0.47067,4.03086 -0.00788,8.17257 -0.33142,13.01906m-156.12644,-12.49634c1.11158,1.16739 2.22315,2.33478 3.90036,4.09624c4.322,-6.12061 8.45292,-11.84149 12.44712,-17.65634c6.52347,-9.49715 4.55227,-19.01828 -0.03171,-29.22827c-2.89905,3.28285 -5.53729,5.59433 -3.03003,10.15437c2.40408,4.37239 1.70721,9.00134 -1.09906,13.19605c-4.18924,6.2619 -8.38998,12.51606 -12.18668,19.43795m-15.51727,-5.68393c0.66632,-1.13952 1.25824,-2.3311 2.01224,-3.40931c2.83252,-4.0504 5.93698,-7.93457 8.43948,-12.17606c0.68128,-1.15469 -0.22189,-3.40759 -0.82071,-4.99718c-0.10266,-0.2724 -2.91876,-0.2191 -3.50525,0.49051c-11.00686,13.31725 -19.65942,27.30417 -10.6849,46.49579c1.47644,-2.96754 4.37808,-6.24931 3.64221,-7.76494c-3.07986,-6.34318 -0.5694,-11.99545 0.91693,-18.63881m-1.06683,55.69684c-0.04514,-2.03445 0.26889,-4.15677 -0.20313,-6.08685c-1.38632,-5.66843 -1.84341,-11.18186 1.70868,-16.23355c2.75159,-3.91324 5.32919,-8.06948 8.69644,-11.39687c3.71207,-3.66813 2.42685,-5.77707 -1.02819,-8.05174c-14.78058,8.99387 -20.66242,30.37735 -11.60901,45.64032c0.76101,-1.3093 1.3493,-2.32144 2.43521,-3.87131m180.3435,-78.38154c-1.31759,-4.67989 -2.63519,-9.35978 -4.21084,-14.95635c-3.21491,3.61461 -5.49295,5.79531 -3.39182,10.16725c2.25556,4.69323 1.68988,9.76529 -1.25424,14.24453c-3.97162,6.04252 -8.08417,11.99243 -12.02536,17.81819c1.21515,1.38343 2.55322,2.90683 4.12411,4.69526c3.9206,-5.33812 8.18863,-10.07959 11.16694,-15.52627c2.61489,-4.78209 3.78424,-10.35462 5.59121,-16.44261m-37.43814,73.20274c-5.17532,-14.36459 6.59531,-22.01566 12.87793,-32.38786c-1.13785,-1.37276 -2.40106,-2.89676 -3.72281,-4.49134c-17.37625,19.2752 -21.46011,29.14244 -11.1474,46.21001c0.93866,-3.58078 1.58838,-6.05936 1.99228,-9.33081m-5.13626,-82.89726c-3.5036,7.8658 -3.69913,15.64077 0.19336,23.98414c3.14816,-3.03822 4.93863,-5.49955 3.844,-9.55609c-0.61042,-2.26208 -0.58439,-5.26683 0.43444,-7.29365c3.44999,-6.8633 7.1492,-13.65363 11.39887,-20.04235c2.41205,-3.62616 2.38431,-5.76417 -2.66214,-8.47249c-4.30722,6.87598 -8.62204,13.76409 -13.20853,21.38044m-136.0827,-0.07482c2.97403,-4.35487 5.64044,-8.96777 9.01279,-12.98858c3.07598,-3.66747 2.00326,-5.67642 -1.48093,-7.65593c-14.62051,14.5998 -21.31116,32.21217 -13.35513,44.94374c1.26947,-2.75104 3.5307,-5.26111 3.10531,-7.17359c-1.32507,-5.95765 0.43631,-11.13014 2.71796,-17.12564m146.04657,84.88587c-3.6236,6.09228 -7.93732,11.89099 -10.68711,18.35501c-3.07903,7.23788 -1.02566,14.44345 3.95337,21.01828c1.22568,-2.92404 1.63803,-5.88733 1.88782,-8.86426c0.35236,-4.19867 -0.42297,-8.82849 1.1153,-12.50836c2.0592,-4.92618 5.4328,-9.51685 9.05539,-13.51447c3.50888,-3.87216 2.72235,-6.11062 -1.68702,-8.75112c-1.01202,1.19488 -2.0819,2.45812 -3.63775,4.26492m15.88775,12.93796c-2.51135,3.21066 -6.10009,6.41345 -0.13824,9.75793c15.30521,-16.1955 21.37256,-32.68289 13.32596,-43.74478c-3.84882,3.70898 -3.79117,3.93442 -3.20279,8.60232c0.28412,2.25373 0.56567,4.89331 -0.30982,6.83628c-2.76409,6.13452 -6.0755,12.0224 -9.67511,18.54825m-126.69754,-24.96528c-0.70318,-3.13134 -1.40634,-6.26269 -2.10952,-9.39404c-0.60376,-0.04828 -1.20749,-0.09653 -1.81125,-0.1448c-0.85648,2.48916 -2.08304,4.92044 -2.48377,7.48092c-0.62072,3.96597 0.3303,8.4628 -1.19619,11.93933c-2.69645,6.14099 -6.30274,12.03137 -10.39325,17.36295c-3.12171,4.06879 -1.66047,5.59192 1.76925,7.38229c11.20859,-12.5307 17.23123,-22.5108 16.22473,-34.62665m-29.634,9.30542c-2.99499,3.95716 -6.21713,7.76478 -8.94028,11.90091c-6.80084,10.32969 -7.09982,21.90323 -0.99536,30.13977c3.2992,-2.53176 3.81897,-5.45034 2.67957,-9.52386c-0.83264,-2.97681 -1.01782,-6.93277 0.29931,-9.55148c3.00785,-5.98004 7.21433,-11.34708 10.69693,-17.10645c0.75547,-1.24939 1.06907,-3.32553 0.55137,-4.60074c-0.38474,-0.94766 -2.44196,-1.21634 -4.29154,-1.25815m29.12778,-109.18934c-1.11237,-3.48026 -2.22476,-6.9605 -3.46378,-10.83702c-3.81533,3.43959 -5.25149,6.27807 -3.26111,10.86587c1.09232,2.51773 0.76865,6.44434 -0.45019,9.00597c-2.59207,5.44775 -5.85861,10.6616 -9.45975,15.51826c-3.76071,5.0719 -4.06988,4.8685 1.49881,8.30845c1.77997,-2.11988 3.65299,-4.20244 5.36148,-6.41224c5.82581,-7.53529 11.23676,-15.25355 9.77454,-26.44929m123.6004,29.35748c1.19379,1.30101 2.38758,2.60202 3.60303,3.92668c18.00189,-19.78395 19.39105,-29.88281 11.54169,-43.62373c-2.46381,2.50609 -3.4162,4.85715 -2.83109,8.71347c0.65646,4.32639 0.49765,9.46255 -1.29956,13.31715c-2.81747,6.04296 -7.30701,11.30632 -11.01407,17.66643m-10.98083,37.26917c5.74603,6.11074 11.49206,12.22148 17.23813,18.33223c0.53793,-0.09697 1.07586,-0.19396 1.6138,-0.29093c0.21255,-2.16826 1.45159,-5.20956 0.47073,-6.36278c-6.26358,-7.3643 -13.01556,-14.31314 -19.75839,-21.56161c-2.95273,3.47732 -3.58338,6.4386 0.43573,9.88309m-125.00995,9.33197c-6.0802,-6.32492 -12.16043,-12.64984 -18.40668,-19.14748c-1.81799,2.49692 -4.21353,4.75893 -1.37683,7.86559c6.33765,6.94076 12.75763,13.80633 19.32794,20.9011c1.76999,-3.14303 4.1033,-5.81964 0.45557,-9.61921m137.73242,39.28901c1.01096,1.06568 2.02194,2.13135 3.0498,3.21482c3.77768,-4.33728 3.93937,-4.46763 0.74088,-8.435c-5.26788,-6.53424 -10.76865,-12.88071 -16.2034,-19.34454c-4.11884,5.14141 -4.10168,5.36669 -0.06973,10.04327c4.00818,4.64899 7.98309,9.32666 12.48245,14.52145m-12.58206,-84.7424c5.76385,6.6212 11.52768,13.24242 18.20187,20.9094c0.83332,-3.45679 2.38324,-6.26719 1.60941,-7.25234c-5.85828,-7.45824 -12.17227,-14.55855 -18.34409,-21.77055c-0.66843,0.16849 -1.33688,0.33697 -2.00531,0.50546c0,2.36656 0,4.73312 0.53812,7.60803m7.07049,110.10282c2.88452,3.77291 5.76905,7.5458 9.75617,12.76092c0.48837,-3.70911 1.98941,-6.98523 0.94079,-8.52618c-5.02331,-7.3816 -10.73697,-14.29343 -16.11551,-21.25599c-4.24475,3.21827 -4.61944,5.93213 -0.97656,9.21653c2.29383,2.06814 3.96186,4.83038 6.39511,7.80472m2.96018,-129.96857c1.8548,2.21422 3.70962,4.42844 5.57397,6.65405c3.70249,-2.72238 3.89734,-5.38972 1.22299,-8.62565c-5.1387,-6.21775 -10.12063,-12.56507 -15.22549,-18.93084c-3.41049,2.66986 -4.63666,5.32631 -0.9567,9.15013c3.29679,3.42571 5.96311,7.45812 9.38523,11.75231m-147.59619,25.62732c3.73584,4.58647 7.47168,9.17296 12.2092,14.98913c0.76678,-3.2848 2.51547,-6.46577 1.62121,-7.64872c-5.54108,-7.32981 -11.67599,-14.21064 -17.69714,-21.33927c-3.89667,3.55965 -3.76706,6.50411 -0.409,9.52326c1.35367,1.21699 2.52499,2.63679 4.27573,4.4756m-1.99271,-34.03739c4.13089,5.04934 8.26175,10.09867 12.44806,15.21576c3.27481,-4.07566 3.64481,-5.51437 1.64539,-8.02234c-5.28144,-6.62465 -10.68598,-13.15113 -16.06345,-19.74357c-4.10059,4.90677 -4.10059,4.90677 1.97,12.55015m3.32202,127.69962c-1.79077,-2.04352 -3.58154,-4.08704 -5.31738,-6.06793c-3.89508,2.85861 -3.71787,5.5874 -0.78381,8.83981c3.32437,3.68509 6.30301,7.68305 9.41369,11.55966c1.99799,2.4899 3.96292,5.00626 6.08918,7.69608c2.94399,-3.67655 3.22427,-6.55634 0.32244,-9.79694c-3.30966,-3.69607 -6.23208,-7.73889 -9.72412,-12.23068m2.19568,-19.17529c2.30249,2.66955 4.60498,5.33908 6.90747,8.00863c0.5849,-0.17245 1.16977,-0.34494 1.75467,-0.51739c0,-2.35956 0.97879,-5.48609 -0.16675,-6.94806c-5.41711,-6.91348 -11.41491,-13.37198 -17.30163,-20.1023c-3.32257,4.15113 -1.68576,7.29578 0.47366,10.10468c2.41098,3.13611 5.20657,5.9765 8.33258,9.45444z" fill="#F2F2F2"/>
  <path id="svg_102" d="m739.18689,282.82031c2.65674,5.48285 5.20788,10.62198 7.58783,15.8392c0.90247,1.97843 0.78265,3.99497 4.01196,4.67029c3.80914,0.79663 4.89582,4.6391 4.56348,8.37714c-0.31159,3.50449 -2.49011,5.07199 -5.99066,5.39419c-9.52063,0.87623 -17.31922,4.59067 -21.14075,14.02711c-0.85065,2.10049 -1.31738,4.4624 -1.43762,6.73168c-0.28809,5.43711 -3.17163,8.76065 -8.07373,8.83011c-3.6228,0.05133 -7.55664,-3.97677 -7.3628,-8.57736c0.5351,-12.69388 5.90418,-23.14358 16.66376,-30.00531c4.15271,-2.64838 4.0755,-5.30542 2.87079,-8.94925c-3.14301,-9.50659 -10.94537,-12.68262 -19.75769,-14.48828c-6.05048,-1.23978 -8.45276,-3.94116 -7.84436,-8.73154c0.57703,-4.54327 3.51929,-6.721 9.45734,-6.49206c10.67498,0.41162 19.46289,4.79678 26.45245,13.37408z" fill="#F9F9F9"/>
  <path id="svg_103" d="m648.15832,266.02368c3.32941,-0.59173 6.23957,-1.28711 9.19062,-1.62298c4.64587,-0.52872 8.64624,2.7265 9.13922,7.19027c0.49841,4.51312 -2.10773,7.74942 -7.29645,8.1619c-10.3775,0.82495 -17.31592,5.86108 -20.61651,15.78839c-1.086,3.26654 -0.93103,5.45489 2.73852,7.65735c11.81329,7.09045 17.08643,18.05975 16.64978,31.73944c-0.12836,4.02277 -2.0517,6.32648 -6.59534,6.13156c-5.45526,-0.23401 -8.45013,-1.95917 -8.2843,-6.33539c0.43115,-11.37723 -9.65356,-22.37585 -21.95245,-22.13904c-3.64777,0.07026 -5.84589,-2.20239 -6.3067,-5.81295c-0.43525,-3.41065 -0.37494,-6.75434 3.62695,-8.27701c1.38391,-0.52655 2.78863,-0.99817 4.25421,-1.5199c2.19788,-15.19205 10.4126,-25.64804 25.45245,-30.96164z" fill="#FAFAFA"/>
  <path id="svg_104" d="m786.91156,71.04289c-0.67572,0.06717 -1.12561,-0.21827 -1.57544,-0.5037c0.60046,0.05036 1.20087,0.10073 1.57544,0.5037z" fill="#F9F9F9"/>
 </g>
</svg>